<svg width="42" height="41" viewBox="0 0 42 41" fill="none" xmlns="http://www.w3.org/2000/svg">
<path d="M40.7486 20.1775L21.8431 1.28573C21.7069 1.14934 21.5453 1.04113 21.3673 0.967301C21.1893 0.893471 20.9985 0.855469 20.8058 0.855469C20.6131 0.855469 20.4223 0.893471 20.2443 0.967301C20.0663 1.04113 19.9046 1.14934 19.7685 1.28573L0.862891 20.1775C0.312109 20.7283 0 21.4765 0 22.2567C0 23.8769 1.31729 25.1942 2.9375 25.1942H4.92949V38.6746C4.92949 39.487 5.58584 40.1433 6.39824 40.1433H17.8683V29.8621H23.0089V40.1433H35.2133C36.0257 40.1433 36.682 39.487 36.682 38.6746V25.1942H38.674C39.4543 25.1942 40.2024 24.8867 40.7532 24.3313C41.8961 23.1839 41.8961 21.325 40.7486 20.1775Z" fill="white"/>
</svg>
