<svg width="16" height="16" viewBox="0 0 16 16" fill="none" xmlns="http://www.w3.org/2000/svg">
<path fill-rule="evenodd" clip-rule="evenodd" d="M13.5 6V11.5H5.5V1.5H9V4.25C9 5.216 9.784 6 10.75 6H13.5ZM10.5 1.621L13.379 4.5H10.75C10.6837 4.5 10.6201 4.47366 10.5732 4.42678C10.5263 4.37989 10.5 4.3163 10.5 4.25V1.621ZM5 0C4.73478 0 4.48043 0.105357 4.29289 0.292893C4.10536 0.48043 4 0.734784 4 1V3H2.25C1.56 3 1 3.56 1 4.25V14.75C1 15.44 1.56 16 2.25 16H10.5C11.19 16 11.75 15.44 11.75 14.75V13.08C11.7501 13.0533 11.7487 13.0266 11.746 13H14C14.2652 13 14.5196 12.8946 14.7071 12.7071C14.8946 12.5196 15 12.2652 15 12V4.414C14.9999 4.14881 14.8945 3.89449 14.707 3.707L11.293 0.293C11.1055 0.105451 10.8512 5.66374e-05 10.586 0H5ZM4 12V4.5H2.5V14.5H10.25V13.08C10.25 13.053 10.251 13.026 10.254 13H5C4.73478 13 4.48043 12.8946 4.29289 12.7071C4.10536 12.5196 4 12.2652 4 12Z" fill="black"/>
</svg>
